<!--?xml version="1.0" standalone="no"?--><svg version="1.0" xmlns="http://www.w3.org/2000/svg" width="300.000000pt" height="300.000000pt" viewBox="0 0 300.000000 300.000000" preserveAspectRatio="xMidYMid meet">
<metadata>
  <rdf:rdf xmlns:rdf="http://www.w3.org/1999/02/22-rdf-syntax-ns#" xmlns:rdfs="http://www.w3.org/2000/01/rdf-schema#" xmlns:dc="http://purl.org/dc/elements/1.1/">
    <rdf:description dc:title="trible integral" dc:publisher="Hiox" dc:date="2015-05-14" dc:format="image/svg+xml" dc:language="en">
      <dc:creator>
        <rdf:bag>
          <rdf:li>svgimages.com</rdf:li>
        </rdf:bag>
      </dc:creator>
    </rdf:description>
  </rdf:rdf>
</metadata>
<g transform="translate(0.000000,300.000000) scale(0.100000,-0.100000)" fill="#0F0F0F" stroke="none">
<path d="M1048 2305 c-109 -30 -185 -99 -255 -234 -73 -140 -132 -487 -153
-911 -6 -113 -15 -259 -21 -325 -5 -66 -14 -176 -19 -245 -14 -195 -59 -337
-128 -406 -31 -31 -40 -34 -91 -34 -55 0 -58 1 -104 50 -26 27 -58 52 -73 56
-38 10 -70 -9 -78 -46 -18 -94 91 -152 252 -134 137 16 256 123 341 306 34 73
42 106 75 323 37 244 54 446 76 920 6 127 15 246 20 265 4 19 13 64 20 99 14
76 55 173 94 218 48 57 128 52 186 -11 32 -34 72 -56 104 -56 28 0 56 33 56
67 0 29 -60 84 -108 100 -49 15 -135 14 -194 -2z" id="node1" class="node"></path>
<path d="M1804 2306 c-43 -14 -122 -54 -139 -71 -89 -89 -151 -219 -177 -368
-56 -334 -73 -482 -88 -797 -12 -243 -26 -424 -40 -520 -5 -36 -14 -99 -20
-140 -13 -95 -70 -214 -114 -241 -35 -21 -96 -25 -129 -8 -12 7 -43 31 -69 55
-53 49 -86 56 -118 24 -41 -41 -15 -112 53 -147 23 -11 58 -16 127 -16 90 1
99 3 165 38 169 89 216 181 294 585 38 191 58 405 71 740 6 146 15 297 20 335
5 39 14 108 20 155 13 103 23 137 62 217 25 49 39 66 74 85 39 20 47 21 88 10
30 -8 62 -27 92 -57 52 -49 89 -58 117 -27 25 27 22 84 -5 109 -55 51 -188 69
-284 39z" id="node2" class="node"></path>
<path d="M2573 2306 c-186 -60 -292 -222 -346 -526 -45 -257 -64 -474 -77
-885 -7 -245 -15 -331 -40 -435 -5 -19 -14 -63 -21 -97 -15 -78 -75 -174 -123
-197 -40 -19 -92 -20 -123 -3 -12 7 -38 31 -58 55 -43 49 -79 55 -113 19 -33
-35 -28 -70 14 -105 50 -41 108 -55 207 -50 92 5 142 27 218 95 73 66 162 271
189 438 34 209 75 653 90 955 16 349 46 523 101 601 10 15 19 32 19 38 0 17
56 41 97 41 42 0 65 -13 130 -72 32 -29 51 -38 77 -38 42 0 59 24 54 78 -2 30
-10 41 -46 67 -39 27 -53 30 -125 32 -49 2 -99 -3 -124 -11z" id="node3" class="node"></path>
</g>
<g transform="translate(0.000000,300.000000) scale(0.100000,-0.100000)" fill="#A0A0A0" stroke="none">

</g>
</svg>