<svg xmlns="http://www.w3.org/2000/svg" xmlns:xlink="http://www.w3.org/1999/xlink" version="1.1" width="1000" height="1000" viewBox="0 0 1000 1000" xml:space="preserve">
<desc>Created with Fabric.js 3.5.0</desc>
<defs>
</defs>
<rect x="0" y="0" width="100%" height="100%" fill="#ffffff"/>
<g transform="matrix(15.7576 0 0 15.7576 500.0007 500.0007)" id="939834">
<path style="stroke: none; stroke-width: 1; stroke-dasharray: none; stroke-linecap: butt; stroke-dashoffset: 0; stroke-linejoin: miter; stroke-miterlimit: 4; is-custom-font: none; font-file-url: none; fill: rgb(113,60,200); fill-rule: evenodd; opacity: 1;" vector-effect="non-scaling-stroke" transform=" translate(-616.2075, -35.5)" d="M 588.863104 25.1532108 L 600.088717 25.1532108 L 600.088717 64.3424599 L 588.863104 64.3424599 L 588.863104 25.1532108 Z M 594.189768 20.2513224 L 594.108496 20.2513224 C 590.044926 20.2513224 587.410377 17.2555188 587.410377 13.4618192 C 587.410377 9.59054641 590.122811 6.65384615 594.267653 6.65384615 C 598.409108 6.65384615 600.955612 9.58315849 601.036884 13.4507373 C 601.036884 17.2444369 598.409108 20.2513224 594.189768 20.2513224 L 594.189768 20.2513224 Z M 645.004717 64.3461538 L 632.275582 64.3461538 L 632.275582 44.0626053 C 632.275582 38.754381 630.284433 35.1342977 625.905935 35.1342977 C 622.556876 35.1342977 620.694406 37.576007 619.827511 39.9364491 C 619.502426 40.7786725 619.55322 41.9570466 619.55322 43.1391146 L 619.55322 64.3461538 L 606.942606 64.3461538 C 606.942606 64.3461538 607.105149 28.4186737 606.942606 25.1532108 L 619.55322 25.1532108 L 619.55322 31.3036585 C 620.298208 28.6144537 624.327916 24.7764266 630.758516 24.7764266 C 638.736659 24.7764266 645.004717 30.4171075 645.004717 42.5517746 L 645.004717 64.3461538 L 645.004717 64.3461538 Z" stroke-linecap="round"/>
</g>
</svg>